<?xml version="1.0" encoding="UTF-8" standalone="no"?>
<!DOCTYPE svg PUBLIC "-//W3C//DTD SVG 1.1//EN" "http://www.w3.org/Graphics/SVG/1.1/DTD/svg11.dtd">
<!-- Generated by Microsoft Visio, SVG Export prefix_sum.svg Page-1 -->
<svg xmlns="http://www.w3.org/2000/svg" xmlns:xlink="http://www.w3.org/1999/xlink" xmlns:ev="http://www.w3.org/2001/xml-events"
		xmlns:v="http://schemas.microsoft.com/visio/2003/SVGExtensions/" width="8.40625in" height="8.419in"
		viewBox="0 0 605.25 606.168" xml:space="preserve" color-interpolation-filters="sRGB" class="st9">
	<v:documentProperties v:langID="1033" v:viewMarkup="false">
		<v:userDefs>
			<v:ud v:nameU="msvNoAutoConnect" v:val="VT0(1):26"/>
		</v:userDefs>
	</v:documentProperties>

	<style type="text/css">
	<![CDATA[
		.st1 {fill:#ffffff;stroke:#000000;stroke-linecap:round;stroke-linejoin:round;stroke-width:0.24}
		.st2 {fill:#595959;stroke:none;stroke-linecap:butt;stroke-width:0.75}
		.st3 {marker-start:url(#mrkr13-34);stroke:#000000;stroke-linecap:round;stroke-linejoin:round;stroke-width:2.25}
		.st4 {fill:#000000;fill-opacity:1;stroke:#000000;stroke-opacity:1;stroke-width:0.47169811320755}
		.st5 {marker-end:url(#mrkr13-75);stroke:#000000;stroke-linecap:round;stroke-linejoin:round;stroke-width:2.25}
		.st6 {fill:none;stroke:#ff0000;stroke-linecap:round;stroke-linejoin:round;stroke-width:2.25}
		.st7 {fill:none;stroke:#9c4a09;stroke-linecap:round;stroke-linejoin:round;stroke-width:2.25}
		.st8 {fill:none;stroke:#205867;stroke-linecap:round;stroke-linejoin:round;stroke-width:2.25}
		.st9 {fill:none;fill-rule:evenodd;font-size:12px;overflow:visible;stroke-linecap:square;stroke-miterlimit:3}
	]]>
	</style>

	<defs id="Markers">
		<g id="lend13">
			<path d="M 3 1 L 0 0 L 3 -1 L 3 1 " style="stroke:none"/>
		</g>
		<marker id="mrkr13-34" class="st4" v:arrowType="13" v:arrowSize="2" v:setback="6.2" refX="6.2" orient="auto"
				markerUnits="strokeWidth" overflow="visible">
			<use xlink:href="#lend13" transform="scale(2.12) "/>
		</marker>
		<marker id="mrkr13-75" class="st4" v:arrowType="13" v:arrowSize="2" v:setback="6.36" refX="-6.36" orient="auto"
				markerUnits="strokeWidth" overflow="visible">
			<use xlink:href="#lend13" transform="scale(-2.12,-2.12) "/>
		</marker>
	</defs>
	<g v:mID="0" v:index="1" v:groupContext="foregroundPage">
		<title>Page-1</title>
		<v:pageProperties v:drawingScale="1" v:pageScale="1" v:drawingUnits="19" v:shadowOffsetX="9" v:shadowOffsetY="-9"/>
		<v:layer v:name="Connector" v:index="0"/>
		<v:layer v:name="box" v:index="1"/>
		<g id="shape1-1" v:mID="1" v:groupContext="shape" transform="translate(66.125,-438.084)">
			<title>Circle</title>
			<v:userDefs>
				<v:ud v:nameU="visVersion" v:val="VT0(15):26"/>
			</v:userDefs>
			<path d="M0 565.67 A40.5 40.5 0 0 1 81 565.67 A40.5 40.5 0 1 1 0 565.67 Z" class="st1"/>
		</g>
		<g id="shape2-3" v:mID="2" v:groupContext="shape" transform="translate(83.495,-455.454)">
			<title>Add</title>
			<v:userDefs>
				<v:ud v:nameU="msvShapeCategories" v:prompt="" v:val="VT4(Icon)"/>
				<v:ud v:nameU="visVersion" v:prompt="" v:val="VT0(15):26"/>
			</v:userDefs>
			<path d="M46.26 587.99 L28.09 587.99 L28.09 606.17 L18.17 606.17 L18.17 587.99 L0 587.99 L0 578.08 L18.17 578.08 L18.17
						 559.91 L28.09 559.91 L28.09 578.08 L46.26 578.08 L46.26 587.99 Z" class="st2"/>
		</g>
		<g id="shape3-5" v:mID="3" v:groupContext="shape" transform="translate(183.125,-438.084)">
			<title>Circle.3</title>
			<v:userDefs>
				<v:ud v:nameU="visVersion" v:val="VT0(15):26"/>
			</v:userDefs>
			<path d="M0 565.67 A40.5 40.5 0 0 1 81 565.67 A40.5 40.5 0 1 1 0 565.67 Z" class="st1"/>
		</g>
		<g id="shape4-7" v:mID="4" v:groupContext="shape" transform="translate(200.495,-455.454)">
			<title>Add.4</title>
			<v:userDefs>
				<v:ud v:nameU="msvShapeCategories" v:prompt="" v:val="VT4(Icon)"/>
				<v:ud v:nameU="visVersion" v:prompt="" v:val="VT0(15):26"/>
			</v:userDefs>
			<path d="M46.26 587.99 L28.09 587.99 L28.09 606.17 L18.17 606.17 L18.17 587.99 L0 587.99 L0 578.08 L18.17 578.08 L18.17
						 559.91 L28.09 559.91 L28.09 578.08 L46.26 578.08 L46.26 587.99 Z" class="st2"/>
		</g>
		<g id="shape5-9" v:mID="5" v:groupContext="shape" transform="translate(336.125,-438.084)">
			<title>Circle.5</title>
			<v:userDefs>
				<v:ud v:nameU="visVersion" v:val="VT0(15):26"/>
			</v:userDefs>
			<path d="M0 565.67 A40.5 40.5 0 0 1 81 565.67 A40.5 40.5 0 1 1 0 565.67 Z" class="st1"/>
		</g>
		<g id="shape6-11" v:mID="6" v:groupContext="shape" transform="translate(353.495,-455.454)">
			<title>Add.6</title>
			<v:userDefs>
				<v:ud v:nameU="msvShapeCategories" v:prompt="" v:val="VT4(Icon)"/>
				<v:ud v:nameU="visVersion" v:prompt="" v:val="VT0(15):26"/>
			</v:userDefs>
			<path d="M46.26 587.99 L28.09 587.99 L28.09 606.17 L18.17 606.17 L18.17 587.99 L0 587.99 L0 578.08 L18.17 578.08 L18.17
						 559.91 L28.09 559.91 L28.09 578.08 L46.26 578.08 L46.26 587.99 Z" class="st2"/>
		</g>
		<g id="shape7-13" v:mID="7" v:groupContext="shape" transform="translate(453.125,-438.084)">
			<title>Circle.7</title>
			<v:userDefs>
				<v:ud v:nameU="visVersion" v:val="VT0(15):26"/>
			</v:userDefs>
			<path d="M0 565.67 A40.5 40.5 0 0 1 81 565.67 A40.5 40.5 0 1 1 0 565.67 Z" class="st1"/>
		</g>
		<g id="shape8-15" v:mID="8" v:groupContext="shape" transform="translate(470.495,-455.454)">
			<title>Add.8</title>
			<v:userDefs>
				<v:ud v:nameU="msvShapeCategories" v:prompt="" v:val="VT4(Icon)"/>
				<v:ud v:nameU="visVersion" v:prompt="" v:val="VT0(15):26"/>
			</v:userDefs>
			<path d="M46.26 587.99 L28.09 587.99 L28.09 606.17 L18.17 606.17 L18.17 587.99 L0 587.99 L0 578.08 L18.17 578.08 L18.17
						 559.91 L28.09 559.91 L28.09 578.08 L46.26 578.08 L46.26 587.99 Z" class="st2"/>
		</g>
		<g id="shape9-17" v:mID="9" v:groupContext="shape" transform="translate(133.625,-260.334)">
			<title>Circle.9</title>
			<v:userDefs>
				<v:ud v:nameU="visVersion" v:val="VT0(15):26"/>
			</v:userDefs>
			<path d="M0 565.67 A40.5 40.5 0 0 1 81 565.67 A40.5 40.5 0 1 1 0 565.67 Z" class="st1"/>
		</g>
		<g id="shape10-19" v:mID="10" v:groupContext="shape" transform="translate(150.995,-277.704)">
			<title>Add.10</title>
			<v:userDefs>
				<v:ud v:nameU="msvShapeCategories" v:prompt="" v:val="VT4(Icon)"/>
				<v:ud v:nameU="visVersion" v:prompt="" v:val="VT0(15):26"/>
			</v:userDefs>
			<path d="M46.26 587.99 L28.09 587.99 L28.09 606.17 L18.17 606.17 L18.17 587.99 L0 587.99 L0 578.08 L18.17 578.08 L18.17
						 559.91 L28.09 559.91 L28.09 578.08 L46.26 578.08 L46.26 587.99 Z" class="st2"/>
		</g>
		<g id="shape11-21" v:mID="11" v:groupContext="shape" transform="translate(385.625,-264.834)">
			<title>Circle.11</title>
			<v:userDefs>
				<v:ud v:nameU="visVersion" v:val="VT0(15):26"/>
			</v:userDefs>
			<path d="M0 565.67 A40.5 40.5 0 0 1 81 565.67 A40.5 40.5 0 1 1 0 565.67 Z" class="st1"/>
		</g>
		<g id="shape12-23" v:mID="12" v:groupContext="shape" transform="translate(402.995,-282.204)">
			<title>Add.12</title>
			<v:userDefs>
				<v:ud v:nameU="msvShapeCategories" v:prompt="" v:val="VT4(Icon)"/>
				<v:ud v:nameU="visVersion" v:prompt="" v:val="VT0(15):26"/>
			</v:userDefs>
			<path d="M46.26 587.99 L28.09 587.99 L28.09 606.17 L18.17 606.17 L18.17 587.99 L0 587.99 L0 578.08 L18.17 578.08 L18.17
						 559.91 L28.09 559.91 L28.09 578.08 L46.26 578.08 L46.26 587.99 Z" class="st2"/>
		</g>
		<g id="shape13-25" v:mID="13" v:groupContext="shape" transform="translate(273.125,-100.584)">
			<title>Circle.13</title>
			<v:userDefs>
				<v:ud v:nameU="visVersion" v:val="VT0(15):26"/>
			</v:userDefs>
			<path d="M0 565.67 A40.5 40.5 0 0 1 81 565.67 A40.5 40.5 0 1 1 0 565.67 Z" class="st1"/>
		</g>
		<g id="shape14-27" v:mID="14" v:groupContext="shape" transform="translate(290.495,-117.954)">
			<title>Add.14</title>
			<v:userDefs>
				<v:ud v:nameU="msvShapeCategories" v:prompt="" v:val="VT4(Icon)"/>
				<v:ud v:nameU="visVersion" v:prompt="" v:val="VT0(15):26"/>
			</v:userDefs>
			<path d="M46.26 587.99 L28.09 587.99 L28.09 606.17 L18.17 606.17 L18.17 587.99 L0 587.99 L0 578.08 L18.17 578.08 L18.17
						 559.91 L28.09 559.91 L28.09 578.08 L46.26 578.08 L46.26 587.99 Z" class="st2"/>
		</g>
		<g id="shape16-29" v:mID="16" v:groupContext="shape" v:layerMember="0" transform="translate(77.9834,-507.226)">
			<title>Dynamic connector</title>
			<path d="M-5.76 593.46 L-5.91 593.14 L-29.86 540.31" class="st3"/>
		</g>
		<g id="shape17-35" v:mID="17" v:groupContext="shape" v:layerMember="0" transform="translate(135.267,-507.226)">
			<title>Dynamic connector.17</title>
			<path d="M4.21 592.87 L4.32 592.53 L20.86 540.31" class="st3"/>
		</g>
		<g id="shape18-40" v:mID="18" v:groupContext="shape" v:layerMember="0" transform="translate(194.983,-507.226)">
			<title>Dynamic connector.18</title>
			<path d="M-4.21 592.87 L-4.32 592.53 L-20.86 540.31" class="st3"/>
		</g>
		<g id="shape19-45" v:mID="19" v:groupContext="shape" v:layerMember="0" transform="translate(252.267,-507.226)">
			<title>Dynamic connector.19</title>
			<path d="M5.76 593.46 L5.91 593.14 L29.86 540.31" class="st3"/>
		</g>
		<g id="shape20-50" v:mID="20" v:groupContext="shape" v:layerMember="0" transform="translate(347.983,-507.226)">
			<title>Dynamic connector.20</title>
			<path d="M-5.76 593.46 L-5.91 593.14 L-29.86 540.31" class="st3"/>
		</g>
		<g id="shape21-55" v:mID="21" v:groupContext="shape" v:layerMember="0" transform="translate(405.267,-507.226)">
			<title>Dynamic connector.21</title>
			<path d="M4.21 592.87 L4.32 592.53 L20.86 540.31" class="st3"/>
		</g>
		<g id="shape22-60" v:mID="22" v:groupContext="shape" v:layerMember="0" transform="translate(464.983,-507.226)">
			<title>Dynamic connector.22</title>
			<path d="M-4.21 592.87 L-4.32 592.53 L-20.86 540.31" class="st3"/>
		</g>
		<g id="shape23-65" v:mID="23" v:groupContext="shape" v:layerMember="0" transform="translate(522.267,-507.226)">
			<title>Dynamic connector.23</title>
			<path d="M5.76 593.46 L5.91 593.14 L29.86 540.31" class="st3"/>
		</g>
		<g id="shape24-70" v:mID="24" v:groupContext="shape" v:layerMember="0" transform="translate(106.625,-438.084)">
			<title>Dynamic connector.24</title>
			<path d="M0 606.17 L0 714.78 L24.55 714.78" class="st5"/>
		</g>
		<g id="shape25-76" v:mID="25" v:groupContext="shape" v:layerMember="0" transform="translate(223.625,-438.084)">
			<title>Dynamic connector.25</title>
			<path d="M0 606.17 L0 714.78 L-6.55 714.78" class="st5"/>
		</g>
		<g id="shape26-81" v:mID="26" v:groupContext="shape" v:layerMember="0" transform="translate(376.625,-438.084)">
			<title>Dynamic connector.26</title>
			<path d="M0 606.17 L0 710.28 L6.55 710.28" class="st5"/>
		</g>
		<g id="shape27-86" v:mID="27" v:groupContext="shape" v:layerMember="0" transform="translate(493.625,-438.084)">
			<title>Dynamic connector.27</title>
			<path d="M0 606.17 L0 710.28 L-24.55 710.28" class="st5"/>
		</g>
		<g id="shape28-91" v:mID="28" v:groupContext="shape" v:layerMember="0" transform="translate(174.125,-260.334)">
			<title>Dynamic connector.28</title>
			<path d="M0 606.17 L99.78 687.72" class="st5"/>
		</g>
		<g id="shape29-96" v:mID="29" v:groupContext="shape" v:layerMember="0" transform="translate(426.125,-264.834)">
			<title>Dynamic connector.29</title>
			<path d="M0 606.17 L-74.39 690.54" class="st5"/>
		</g>
		<g id="shape32-101" v:mID="32" v:groupContext="shape" transform="translate(919.793,505.584) rotate(90)">
			<title>Sheet.32</title>
			<path d="M0 606.17 L53.19 606.17" class="st5"/>
		</g>
		<g id="shape1008-106" v:mID="1008" v:groupContext="shape" transform="translate(41.625,-420.75)">
			<title>Sheet.1008</title>
			<rect x="0" y="486.918" width="117" height="119.25" class="st6"/>
		</g>
		<g id="shape1009-108" v:mID="1009" v:groupContext="shape" transform="translate(167.625,-420.75)">
			<title>Sheet.1009</title>
			<rect x="0" y="486.918" width="117" height="119.25" class="st6"/>
		</g>
		<g id="shape1010-110" v:mID="1010" v:groupContext="shape" transform="translate(316.125,-420.75)">
			<title>Sheet.1010</title>
			<rect x="0" y="486.918" width="117" height="119.25" class="st6"/>
		</g>
		<g id="shape1011-112" v:mID="1011" v:groupContext="shape" transform="translate(442.125,-420.75)">
			<title>Sheet.1011</title>
			<rect x="0" y="486.918" width="117" height="119.25" class="st6"/>
		</g>
		<g id="shape1012-114" v:mID="1012" v:groupContext="shape" transform="translate(28.125,-234)">
			<title>Sheet.1012</title>
			<rect x="0" y="284.418" width="270" height="321.75" class="st7"/>
		</g>
		<g id="shape1013-116" v:mID="1013" v:groupContext="shape" transform="translate(307.125,-234)">
			<title>Sheet.1013</title>
			<rect x="0" y="284.418" width="270" height="321.75" class="st7"/>
		</g>
		<g id="shape1014-118" v:mID="1014" v:groupContext="shape" transform="translate(19.125,-84.375)">
			<title>Sheet.1014</title>
			<rect x="0" y="126.918" width="567" height="479.25" class="st8"/>
		</g>
	</g>
</svg>
